<svg width="221" height="228" viewBox="0 0 221 228" fill="none" xmlns="http://www.w3.org/2000/svg">
<rect x="53" y="62" width="100" height="100" fill="#1C1E21"/>
<path fill-rule="evenodd" clip-rule="evenodd" d="M67.6299 101.445C67.6299 82.7694 82.7694 67.6299 101.445 67.6299C120.12 67.6299 135.26 82.7694 135.26 101.445C135.26 120.12 120.12 135.26 101.445 135.26C82.7694 135.26 67.6299 120.12 67.6299 101.445ZM156.98 186.352C141.025 196.809 121.945 202.89 101.445 202.89C45.4184 202.89 0 157.471 0 101.445C0 45.4184 45.4184 0 101.445 0C119.443 0 136.346 4.68684 151 12.9066V0H221V228C192.432 228 167.861 210.887 156.98 186.352Z" fill="#65D072"/>
</svg>
